<svg version="1.2" xmlns="http://www.w3.org/2000/svg" viewBox="0 0 1683 355" width="1683" height="355">
	<title>OCBC_Bank_Logo-svg</title>
	<style>
		.s0 { fill: #ee2722 } 
	</style>
	<g id="layer1">
		<g id="g21693">
			<g id="g21652">
				<g id="g74">
					<path id="path76" fill-rule="evenodd" class="s0" d="m1182.6 266.9c-11 0-30.4-0.8-53.3-0.8v-177c15.2-0.9 38.9-0.9 61.8-0.9 39 0 61 15.3 61 44.1 0 16.9-11.8 33-28.8 38.9v0.9c21.2 4.2 32.2 22 32.2 39.8 0 25.4-17.8 55-72.9 55zm2.6-151.6c-7.6 0-14.4 0.9-20.3 0.9v46.6h13.5c24.6 0 36.4-9.4 36.4-25.4 0-12.7-7.6-22.1-29.6-22.1zm-5.1 72.9h-15.2v49.9c4.2 0 11 0.9 18.6 0.9 22.9 0 34.7-10.2 34.7-26.3 0-17.8-15.2-24.5-38.1-24.5z"/>
				</g>
				<g id="g78">
					<path id="path80" fill-rule="evenodd" class="s0" d="m1351.2 266.1c0-7.7 0.9-15.3 1.7-22.1-6.7 14.4-22.9 24.6-43.2 24.6-24.5 0-38.1-12.7-38.1-33.9 0-31.3 31.3-48.2 77.1-48.2v-6.8c0-13.5-6.8-20.3-26.3-20.3-11.8 0-27.9 3.3-38.9 10.1l-3.4-28.8c13.5-4.2 30.5-7.6 48.3-7.6 42.3 0 55 17 55 44.9v55c0 10.2 0 22.9 0.9 33.1zm-2.6-57.6c-36.4 0-44 10.1-44 21.1 0 8.5 5.9 13.6 15.2 13.6 16.9 0 28.8-16.1 28.8-31.3z"/>
				</g>
				<g id="g82">
					<path id="path84" class="s0" d="m1497.8 266.1v-83c0-13.6-4.3-22-17-22-16.9 0-31.3 19.4-31.3 42.3v62.7h-33.9v-130.5h32.2c0 6 0 16.1-1.7 23.8 8.5-15.3 23.7-26.3 45.8-26.3 30.4 0 39.8 18.6 39.8 41.5v91.5z"/>
				</g>
				<g id="g86">
					<path id="path88" class="s0" d="m1639.3 266.1l-41.5-64.4v64.4h-33.9v-191.4h33.9v115.1l38.9-54.2h42.4l-46.6 60.2 50 70.3z"/>
				</g>
			</g>
			<g id="g21683">
				<g id="g98">
					<path id="path100" fill-rule="evenodd" class="s0" d="m488.8 269.5c-59.3 0-88.1-33.9-88.1-89.8 0-57.6 42.4-94 94.9-94 50 0 88.1 27.1 88.1 88.9 0 58.4-42.4 94.9-94.9 94.9zm3.4-146.6c-22.9 0-44.9 17-44.9 53.4 0 34.7 13.6 55.9 44.1 55.9 21.1 0 45.7-14.4 45.7-54.2 0-36.4-16.1-55.1-44.9-55.1z"/>
				</g>
				<g id="g102">
					<path id="path104" class="s0" d="m691.3 268.6c-70.3 0-89.8-44-89.8-84.7 0-57.6 33.9-95.7 97.4-95.7 12.7 0 27.1 0.9 39 4.3l-5.1 37.2c-11-3.4-22.9-5-34.7-5-31.4 0-48.3 20.3-48.3 52.5 0 34.7 15.2 54.1 50 54.1 10.1 0 24.5-2.5 33.8-5.9l5.1 36.4c-14.4 4.3-31.3 6.8-47.4 6.8z"/>
				</g>
				<g id="g106">
					<path id="path108" fill-rule="evenodd" class="s0" d="m828.5 266.9c-11.8 0-33-0.8-61-0.8v-177c17.8-0.9 46.6-0.9 70.4-0.9 41.5 0 66 15.3 66 44.9 0 16.1-11 31.3-27.9 38.1v0.9c19.5 4.2 31.3 21.1 31.3 38.9 0 28-22.9 55.9-78.8 55.9zm1.7-145.6h-17.8v38.9h12.7c21.2 0 32.2-7.6 32.2-21.2 0-11-8.4-17.7-27.1-17.7zm-3.4 69.4h-14.4v42.3c3.4 0 10.2 0.9 17 0.9 19.5 0 30.5-8.5 30.5-22 0-14.4-12.7-21.2-33.1-21.2z"/>
				</g>
				<g id="g110">
					<path id="path112" class="s0" d="m1015.7 268.6c-70.3 0-89.7-44-89.7-84.7 0-57.6 33.8-95.7 97.4-95.7 13.5 0 27.1 0.9 39 4.3l-5.1 37.2c-11.1-3.4-22.9-5-34.8-5-30.5 0-47.4 20.3-47.4 52.5 0 34.7 15.2 54.1 50 54.1 9.3 0 23.7-2.5 33-5.9l5.1 36.4c-13.6 4.3-30.5 6.8-47.5 6.8z"/>
				</g>
			</g>
			<g id="g114">
				<path id="path116" fill-rule="evenodd" class="s0" d="m217.7 256.8c6-3.4 11.9-7.7 17-11.9 3.3-2.5 6.7-5.9 9.3-9.3 13.5-16.1 22-35.6 22-57.6 0-49.1-39.8-88.9-89-88.9-10.1 0-20.3 1.7-28.8 5l-61.8-68.5c26.3-15.3 57.6-24.6 90.6-24.6 98.3 0 177.1 78.8 177.1 177 0 97.4-78.8 177-177.1 177-48.2 0-92.3-19.5-124.5-51.7h216.9l1.7-1.7-228.8-9.3-1.6-1.7h242.3l0.8-1.7-253.3-11.8-0.9-0.9h98.3c0 0 50 1.7 89.8-19.4zm-201.6-4.3c-0.9-3.4-2.6-6.7-4.2-10.1h53.3l9.4 10.1h78.7l-16.9 17.8h-97.4c-2.6-9.3-11.9-16.9-22.9-17.8zm-5.9-16.1q-10.2-27.9-10.2-58.4c0-11.9 0.9-22.9 3.4-33.9l85.6 30.5v3.4c0 20.3 6.7 39.8 19.4 55h0.9c-7.6-13.5-11.9-28.7-11.9-44.8 0-3.4 0-6.8 0.9-10.2l91.5 32.2v26.2zm179.6-60.1l-70.3-46.6c8.4-10.1 19.4-17.8 32.2-22.8l38.1 38.1zm0 30.5l-90.7-34.8c2.6-13.5 8.5-27.1 17-38.1l73.7 46.6zm-100.8-38.1l-83.9-32.2c5.1-20.3 12.7-38.9 23.7-55.9l75.4 46.6c-8.5 11.9-13.5 26.2-15.2 41.5zm19.5-46.6l-73.8-49.1c11.9-16.1 26.3-30.5 43.2-41.5l63.6 65.2c-12.7 5.9-24.6 14.4-33 25.4z"/>
			</g>
		</g>
	</g>
</svg>